HIERARCHY
ROOT Hips
{
	OFFSET 0.000000 0.000000 0.000000
	CHANNELS 6 Xposition Yposition Zposition Zrotation Yrotation Xrotation 
	JOINT LHipJoint
	{
		OFFSET 0.000000 0.000000 0.000000
		CHANNELS 3 Zrotation Yrotation Xrotation
		JOINT LeftUpLeg
		{
			OFFSET 1.363060 -1.794630 0.839290
			CHANNELS 3 Zrotation Yrotation Xrotation
			JOINT LeftLeg
			{
				OFFSET 2.448110 -6.726130 0.000000
				CHANNELS 3 Zrotation Yrotation Xrotation
				JOINT LeftFoot
				{
					OFFSET 2.562200 -7.039590 0.000000
					CHANNELS 3 Zrotation Yrotation Xrotation
					JOINT LeftToeBase
					{
						OFFSET 0.157640 -0.433110 2.322550
						CHANNELS 3 Zrotation Yrotation Xrotation
						End Site
						{
							OFFSET 0.000000 0.000000 0.000000
						}
					}
				}
			}
		}
	}
	JOINT RHipJoint
	{
		OFFSET 0.000000 0.000000 0.000000
		CHANNELS 3 Zrotation Yrotation Xrotation
		JOINT RightUpLeg
		{
			OFFSET -1.305520 -1.794630 0.839290
			CHANNELS 3 Zrotation Yrotation Xrotation
			JOINT RightLeg
			{
				OFFSET -2.542530 -6.985550 0.000000
				CHANNELS 3 Zrotation Yrotation Xrotation
				JOINT RightFoot
				{
					OFFSET -2.568260 -7.056230 0.000000
					CHANNELS 3 Zrotation Yrotation Xrotation
					JOINT RightToeBase
					{
						OFFSET -0.164730 -0.452590 2.363150
						CHANNELS 3 Zrotation Yrotation Xrotation
						End Site
						{
							OFFSET 0.000000 0.000000 0.000000
						}
					}
				}
			}
		}
	}
	JOINT LowerBack
	{
		OFFSET 0.000000 0.000000 0.000000
		CHANNELS 3 Zrotation Yrotation Xrotation
		JOINT Spine
		{
			OFFSET 0.028270 2.035590 -0.193380
			CHANNELS 3 Zrotation Yrotation Xrotation
			JOINT Spine1
			{
				OFFSET 0.056720 2.048850 -0.042750
				CHANNELS 3 Zrotation Yrotation Xrotation
				JOINT Neck
				{
					OFFSET 0.000000 0.000000 0.000000
					CHANNELS 3 Zrotation Yrotation Xrotation
					JOINT Neck1
					{
						OFFSET -0.054170 1.746240 0.172020
						CHANNELS 3 Zrotation Yrotation Xrotation
						JOINT Head
						{
							OFFSET 0.104070 1.761360 -0.123970
							CHANNELS 3 Zrotation Yrotation Xrotation
							End Site
							{
								OFFSET 0.000000 0.000000 0.000000
							}
						}
					}
				}
				JOINT LeftShoulder
				{
					OFFSET 0.000000 0.000000 0.000000
					CHANNELS 3 Zrotation Yrotation Xrotation
					JOINT LeftArm
					{
						OFFSET 3.362410 1.200890 -0.311210
						CHANNELS 3 Zrotation Yrotation Xrotation
						JOINT LeftForeArm
						{
							OFFSET 4.983000 -0.000000 -0.000000
							CHANNELS 3 Zrotation Yrotation Xrotation
							JOINT LeftHand
							{
								OFFSET 3.483560 -0.000000 -0.000000
								CHANNELS 3 Zrotation Yrotation Xrotation
								JOINT LeftFingerBase
								{
									OFFSET 0.000000 0.000000 0.000000
									CHANNELS 3 Zrotation Yrotation Xrotation
									JOINT LeftHandIndex1
									{
										OFFSET 0.715260 -0.000000 -0.000000
										CHANNELS 3 Zrotation Yrotation Xrotation
										End Site
										{
											OFFSET 0.000000 0.000000 0.000000
										}
									}
								}
								JOINT LThumb
								{
									OFFSET 0.000000 0.000000 0.000000
									CHANNELS 3 Zrotation Yrotation Xrotation
									End Site
									{
										OFFSET 0.000000 0.000000 0.000000
									}
								}
							}
						}
					}
				}
				JOINT RightShoulder
				{
					OFFSET 0.000000 0.000000 0.000000
					CHANNELS 3 Zrotation Yrotation Xrotation
					JOINT RightArm
					{
						OFFSET -3.136600 1.374050 -0.404650
						CHANNELS 3 Zrotation Yrotation Xrotation
						JOINT RightForeArm
						{
							OFFSET -5.241900 -0.000000 -0.000000
							CHANNELS 3 Zrotation Yrotation Xrotation
							JOINT RightHand
							{
								OFFSET -3.444170 -0.000000 -0.000000
								CHANNELS 3 Zrotation Yrotation Xrotation
								JOINT RightFingerBase
								{
									OFFSET 0.000000 0.000000 0.000000
									CHANNELS 3 Zrotation Yrotation Xrotation
									JOINT RightHandIndex1
									{
										OFFSET -0.622530 -0.000000 -0.000000
										CHANNELS 3 Zrotation Yrotation Xrotation
										End Site
										{
											OFFSET 0.000000 0.000000 0.000000
										}
									}
								}
								JOINT RThumb
								{
									OFFSET 0.000000 0.000000 0.000000
									CHANNELS 3 Zrotation Yrotation Xrotation
									End Site
									{
										OFFSET 0.000000 0.000000 0.000000
									}
								}
							}
						}
					}
				}
			}
		}
	}
}
MOTION
Frames: 8
Frame Time: 0.008333
9.016301 17.143223 -0.658086 0.582078 -0.267800 -6.854502 -3.183106 -0.963279 0.159345 -3.533068 2.160162 -15.907920 5.425531 15.294548 45.558448 -1.847727 8.099116 -5.647045 0.541500 -4.714800 -13.097000 0.554292 0.516347 -1.059258 10.061353 -3.555107 -12.778376 -5.813445 -15.470039 47.134932 1.516367 -9.341538 -16.314119 -0.530500 4.667200 -12.961900 -2.390302 -0.788289 2.150845 0.827006 -1.416795 -4.222240 5.239877 -0.006590 -2.055210 -12.769032 -14.438024 -3.498748 3.654165 -19.208509 10.599927 3.479000 -9.948100 5.618400 3.188579 -16.812211 1.403801 -18.400511 -49.069393 12.626207 15.722743 -20.520418 -5.037846 -1.245066 -4.557626 -15.068291 3.574223 38.821799 3.965400 -7.125000 0.000000 0.000000 -43.947400 68.079000 -26.243800 -4.256357 16.924007 -3.026009 24.285394 52.149377 4.789553 -11.777938 14.492579 -3.427741 -3.709816 -0.375369 27.415367 -7.645309 28.533623 -2.352100 7.125000 0.000000 0.000000 15.234700 -0.019800 15.798500 
9.017122 17.143340 -0.655974 0.624584 -0.255774 -6.866468 -3.190021 -0.964368 0.160337 -3.584404 2.123244 -15.876043 5.424861 15.299481 45.572601 -1.852680 8.113873 -5.683918 0.550300 -4.752100 -13.202700 0.553195 0.515012 -1.061140 9.998567 -3.597275 -12.765626 -5.822152 -15.473482 47.155269 1.519302 -9.344749 -16.294148 -0.542200 4.717800 -13.105500 -2.451432 -0.807180 2.138240 0.828068 -1.440101 -4.216647 5.263839 -0.017690 -2.020432 -12.765470 -14.424454 -3.496308 3.668040 -19.195953 10.612069 3.488600 -9.941800 5.618400 3.187953 -16.800232 1.421609 -18.342068 -49.053644 12.505106 15.772068 -20.594995 -5.057673 -1.242101 -4.555052 -15.027795 3.606801 38.839556 3.984900 -7.125000 0.000000 0.000000 -43.952400 68.099000 -26.266100 -4.259073 16.911861 -3.045135 24.327821 52.197388 4.910634 -11.826037 14.527784 -3.434040 -3.708481 -0.364408 27.382388 -7.547127 28.542457 -2.298300 7.125000 0.000000 0.000000 15.292700 -0.036200 15.858700 
9.019234 17.141932 -0.653862 0.652540 -0.253120 -6.850507 -3.195684 -0.969144 0.158092 -3.626367 2.105493 -15.880980 5.427431 15.304888 45.589294 -1.863109 8.138746 -5.677470 0.546000 -4.733700 -13.150700 0.553803 0.514822 -1.060617 9.949606 -3.616573 -12.774842 -5.818786 -15.467693 47.133557 1.542934 -9.395111 -16.226060 -0.560600 4.795900 -13.327500 -2.475910 -0.829392 2.113207 0.830504 -1.469979 -4.215987 5.267875 -0.032334 -1.989544 -12.739423 -14.428064 -3.552418 3.630121 -19.191235 10.653375 3.449800 -9.940100 5.646700 3.194036 -16.794496 1.432142 -18.320488 -49.026909 12.348505 15.809306 -20.638570 -5.067861 -1.234424 -4.548254 -14.925393 3.478715 38.781320 3.882700 -7.125000 0.000000 0.000000 -43.993100 68.016300 -26.216000 -4.260884 16.911674 -3.086010 24.392876 52.262781 5.036042 -11.867551 14.533951 -3.434361 -3.710574 -0.355903 27.463107 -7.535770 28.469733 -2.285800 7.125000 0.000000 0.000000 15.298900 -0.110600 15.845300 
9.021347 17.140758 -0.652102 0.706941 -0.263172 -6.802286 -3.201348 -0.980074 0.152325 -3.698292 2.109647 -15.924748 5.432074 15.313702 45.620987 -1.843519 8.089941 -5.694129 0.525600 -4.646100 -12.901900 0.555580 0.518154 -1.061787 9.868906 -3.609810 -12.830924 -5.821143 -15.467031 47.130930 1.540037 -9.370866 -16.167599 -0.560800 4.796500 -13.329200 -2.513980 -0.838623 2.067052 0.827784 -1.482865 -4.217821 5.255734 -0.038454 -1.961577 -12.707233 -14.423274 -3.618587 3.606486 -19.176688 10.683334 3.419100 -9.932100 5.673700 3.198530 -16.792333 1.443840 -18.266278 -49.015249 12.214992 15.829027 -20.649912 -5.054274 -1.237226 -4.523050 -14.788297 3.403505 38.501769 3.802500 -7.125000 0.000000 0.000000 -43.544500 67.783400 -25.691600 -4.266087 16.914507 -3.125445 24.425268 52.310956 5.122810 -11.891693 14.535634 -3.429053 -3.709946 -0.344579 27.502454 -7.465565 28.385149 -2.241400 7.125000 0.000000 0.000000 15.338100 -0.210000 15.861600 
9.022051 17.139702 -0.651867 0.736531 -0.290372 -6.759104 -3.202834 -0.987006 0.149819 -3.725033 2.115739 -15.965614 5.428891 15.311844 45.614356 -1.840482 8.082001 -5.700522 0.519300 -4.618800 -12.824300 0.556827 0.522727 -1.063426 9.837943 -3.575274 -12.901265 -5.836584 -15.480481 47.183616 1.535017 -9.354339 -16.159351 -0.559400 4.790800 -13.312900 -2.531140 -0.818377 2.036230 0.821184 -1.457807 -4.224715 5.219589 -0.022519 -2.003256 -12.655797 -14.428141 -3.562813 3.591671 -19.189347 10.691216 3.402000 -9.938600 5.652600 3.202295 -16.795934 1.443146 -18.284736 -49.016828 12.348258 15.895735 -20.701749 -5.062911 -1.227023 -4.508044 -14.787257 3.290754 38.321602 3.704400 -7.125000 0.000000 0.000000 -43.333600 67.612800 -25.389400 -4.265901 16.922871 -3.129375 24.472671 52.312133 5.067391 -11.865128 14.490649 -3.436877 -3.730645 -0.327859 27.618254 -7.400417 28.470943 -2.202600 7.125000 0.000000 0.000000 15.389000 -0.134900 15.939100 
9.020643 17.136768 -0.650928 0.687633 -0.349248 -6.737240 -3.189336 -0.987132 0.145245 -3.659703 2.153822 -16.016149 5.449375 15.321979 45.665535 -1.835527 8.072133 -5.730867 0.517800 -4.612000 -12.805100 0.553883 0.527221 -1.064748 9.926426 -3.515320 -12.954094 -5.852909 -15.499173 47.255377 1.549091 -9.410167 -16.212394 -0.577200 4.865000 -13.524000 -2.472718 -0.783096 2.032035 0.818359 -1.413320 -4.231543 5.175975 0.002234 -2.072520 -12.598505 -14.446619 -3.443361 3.589059 -19.227574 10.666538 3.399600 -9.956600 5.594000 3.207084 -16.798530 1.427939 -18.367779 -49.034503 12.507142 15.960561 -20.746626 -5.077818 -1.210166 -4.501695 -14.797087 3.088660 38.232868 3.550800 -7.125000 0.000000 0.000000 -43.398800 67.486000 -25.314100 -4.256799 16.927371 -3.090007 24.518821 52.270304 5.090965 -11.862939 14.467873 -3.457612 -3.753022 -0.334234 27.644424 -7.498271 28.600894 -2.255400 7.125000 0.000000 0.000000 15.346200 0.020800 15.934100 
9.020877 17.133131 -0.647760 0.651361 -0.395905 -6.729347 -3.178854 -0.988605 0.138485 -3.622568 2.187118 -16.050570 5.473685 15.337007 45.731971 -1.861279 8.138992 -5.759314 0.537000 -4.695500 -13.042100 0.551127 0.529019 -1.066842 9.978553 -3.470072 -12.970785 -5.859249 -15.507900 47.285935 1.546565 -9.407187 -16.226318 -0.584300 4.894200 -13.607100 -2.411736 -0.764152 2.021241 0.817101 -1.388976 -4.229463 5.149060 0.013004 -2.066046 -12.589165 -14.435923 -3.428332 3.621174 -19.220981 10.643332 3.424900 -9.951200 5.579500 3.205111 -16.795114 1.429992 -18.389421 -49.043016 12.425807 15.985068 -20.765142 -5.081231 -1.217007 -4.490929 -14.699725 3.092560 38.161942 3.546500 -7.125000 0.000000 0.000000 -43.259400 67.430800 -25.168900 -4.257619 16.919866 -3.080249 24.525733 52.258217 5.146923 -11.875508 14.487236 -3.470428 -3.756854 -0.346069 27.620958 -7.601777 28.675271 -2.315800 7.125000 0.000000 0.000000 15.289500 0.117700 15.897100 
9.023107 17.130549 -0.644005 0.709093 -0.412410 -6.732406 -3.186106 -0.992556 0.137465 -3.696979 2.184956 -16.031529 5.474158 15.342728 45.749567 -1.885218 8.202322 -5.806043 0.552500 -4.761400 -13.229300 0.552111 0.528300 -1.070609 9.897433 -3.443228 -12.935359 -5.861117 -15.508028 47.286718 1.507729 -9.295088 -16.227720 -0.553900 4.767400 -13.246300 -2.439791 -0.762825 1.989144 0.812651 -1.384726 -4.218912 5.136217 0.011670 -1.991980 -12.579367 -14.430329 -3.479194 3.620247 -19.209408 10.635222 3.424900 -9.942400 5.578000 3.203337 -16.779247 1.450876 -18.367193 -49.047284 12.274718 16.003296 -20.797526 -5.086911 -1.214820 -4.485043 -14.651082 3.101039 38.151564 3.547000 -7.125000 0.000000 0.000000 -43.233800 67.421900 -25.143400 -4.261663 16.903898 -3.104749 24.536658 52.305084 5.184473 -11.881648 14.506090 -3.464756 -3.746609 -0.348746 27.574807 -7.594550 28.641530 -2.313700 7.125000 0.000000 0.000000 15.287800 0.079400 15.884800 
